<svg xmlns="http://www.w3.org/2000/svg" viewBox="0 0 500 600" fill="#888888">
  <!-- Hokkaido -->
  <path d="M310 45 C318 38,335 35,348 40 C362 46,372 58,375 72 C378 86,372 100,360 108 C348 116,330 118,318 110 C304 101,296 86,298 70 C300 56,302 52,310 45 Z M348 40 C358 36,372 38,382 46 C392 54,396 68,390 80 C384 92,370 98,358 92 C346 86,340 72,344 58 Z"/>
  <!-- Tohoku (north Honshu) -->
  <path d="M295 125 C302 115,316 112,326 118 C336 124,340 138,336 152 C332 166,320 174,308 170 C296 166,288 152,290 138 Z"/>
  <!-- Honshu main -->
  <path d="M240 155 C255 140,278 135,298 142 C318 149,330 168,328 188 C326 208,312 224,292 230 C272 236,250 230,238 216 C224 200,222 178,232 162 Z M298 142 C315 136,335 138,348 150 C361 162,364 180,356 196 C348 212,330 220,314 216 C298 212,286 198,286 182 C286 166,282 148,298 142 Z"/>
  <!-- Kanto plain (Tokyo area) -->
  <path d="M308 195 C318 188,332 188,340 198 C348 208,346 224,336 230 C326 236,312 234,306 224 C300 214,298 202,308 195 Z"/>
  <!-- Chubu -->
  <path d="M255 235 C268 224,286 222,298 232 C310 242,312 260,304 274 C296 288,278 294,264 288 C250 282,242 266,246 250 Z"/>
  <!-- Kinki (Kansai/Osaka area) -->
  <path d="M228 268 C240 258,258 256,268 266 C278 276,278 294,268 304 C258 314,240 316,230 306 C220 296,216 280,222 270 Z"/>
  <!-- Chugoku -->
  <path d="M195 295 C208 284,228 282,240 292 C252 302,254 320,244 332 C234 344,214 348,202 338 C190 328,184 312,190 300 Z"/>
  <!-- Shikoku -->
  <path d="M230 330 C242 320,262 320,272 332 C282 344,280 362,268 370 C256 378,236 376,228 364 C220 352,218 340,230 330 Z"/>
  <!-- Kyushu -->
  <path d="M175 330 C188 318,210 316,222 328 C234 340,234 362,220 374 C206 386,184 388,172 376 C160 364,156 346,164 334 Z"/>
  <!-- Okinawa main -->
  <path d="M148 460 C156 454,168 454,174 462 C180 470,178 482,170 486 C162 490,150 488,146 480 C142 472,140 466,148 460 Z"/>
  <!-- Okinawa small islands -->
  <ellipse cx="130" cy="500" rx="8" ry="5" transform="rotate(-20 130 500)"/>
  <ellipse cx="115" cy="515" rx="6" ry="4" transform="rotate(-20 115 515)"/>
  <!-- Tsushima -->
  <ellipse cx="168" cy="290" rx="5" ry="10" transform="rotate(-10 168 290)"/>
  <!-- Iki -->
  <ellipse cx="178" cy="305" rx="4" ry="5"/>
  <!-- Sado -->
  <ellipse cx="272" cy="148" rx="10" ry="6" transform="rotate(-30 272 148)"/>
  <!-- Awaji -->
  <ellipse cx="248" cy="318" rx="5" ry="9" transform="rotate(-15 248 318)"/>
</svg>
